<svg width="26" height="26" viewBox="0 0 26 26" fill="none" xmlns="http://www.w3.org/2000/svg">
<path fill-rule="evenodd" clip-rule="evenodd" d="M17.4998 9.33335C17.4998 10.571 17.0082 11.758 16.133 12.6332C15.2578 13.5084 14.0708 14 12.8332 14C11.5955 14 10.4085 13.5084 9.53334 12.6332C8.65817 11.758 8.1665 10.571 8.1665 9.33335C8.1665 8.09568 8.65817 6.90869 9.53334 6.03352C10.4085 5.15835 11.5955 4.66669 12.8332 4.66669C14.0708 4.66669 15.2578 5.15835 16.133 6.03352C17.0082 6.90869 17.4998 8.09568 17.4998 9.33335ZM15.1665 9.33335C15.1665 9.95219 14.9207 10.5457 14.4831 10.9833C14.0455 11.4209 13.452 11.6667 12.8332 11.6667C12.2143 11.6667 11.6208 11.4209 11.1833 10.9833C10.7457 10.5457 10.4998 9.95219 10.4998 9.33335C10.4998 8.71451 10.7457 8.12102 11.1833 7.68344C11.6208 7.24585 12.2143 7.00002 12.8332 7.00002C13.452 7.00002 14.0455 7.24585 14.4831 7.68344C14.9207 8.12102 15.1665 8.71451 15.1665 9.33335Z" fill="#1E241E"/>
<path fill-rule="evenodd" clip-rule="evenodd" d="M12.8333 0C5.74583 0 0 5.74583 0 12.8333C0 19.9208 5.74583 25.6667 12.8333 25.6667C19.9208 25.6667 25.6667 19.9208 25.6667 12.8333C25.6667 5.74583 19.9208 0 12.8333 0ZM2.33333 12.8333C2.33333 15.2717 3.16517 17.5163 4.55933 19.299C5.53868 18.0135 6.80185 16.9717 8.25024 16.2548C9.69864 15.538 11.2931 15.1656 12.9092 15.1667C14.5044 15.1648 16.0791 15.5273 17.513 16.2264C18.9469 16.9256 20.2022 17.943 21.1832 19.201C22.194 17.8752 22.8746 16.3277 23.1687 14.6867C23.4628 13.0456 23.3618 11.3581 22.8742 9.76381C22.3866 8.16951 21.5264 6.71422 20.3647 5.51838C19.203 4.32253 17.7733 3.4205 16.1938 2.88693C14.6143 2.35335 12.9304 2.20357 11.2815 2.44997C9.63261 2.69637 8.06609 3.33187 6.71156 4.30389C5.35704 5.27592 4.25345 6.55651 3.4921 8.03973C2.73075 9.52294 2.33354 11.1661 2.33333 12.8333ZM12.8333 23.3333C10.4229 23.3372 8.08517 22.508 6.216 20.986C6.96828 19.9087 7.96972 19.0292 9.13509 18.4222C10.3004 17.8152 11.5952 17.4989 12.9092 17.5C14.2067 17.4989 15.4858 17.8074 16.6401 18.3999C17.7945 18.9924 18.7908 19.8518 19.5463 20.9067C17.6627 22.4782 15.2864 23.3372 12.8333 23.3333Z" fill="#1E241E"/>
</svg>
