<svg width="21" height="21" viewBox="0 0 21 21" fill="none" xmlns="http://www.w3.org/2000/svg">
<path d="M21 10.5V18.6667C21 19.2855 20.7542 19.879 20.3166 20.3166C19.879 20.7542 19.2855 21 18.6667 21H2.33333C1.71449 21 1.121 20.7542 0.683417 20.3166C0.245833 19.879 0 19.2855 0 18.6667V10.5H21ZM15.1667 0C15.4761 0 15.7728 0.122916 15.9916 0.341709C16.2104 0.560501 16.3333 0.857247 16.3333 1.16667V2.33333H18.6667C19.2855 2.33333 19.879 2.57917 20.3166 3.01675C20.7542 3.45434 21 4.04783 21 4.66667V8.16667H0V4.66667C0 4.04783 0.245833 3.45434 0.683417 3.01675C1.121 2.57917 1.71449 2.33333 2.33333 2.33333H4.66667V1.16667C4.66667 0.857247 4.78958 0.560501 5.00838 0.341709C5.22717 0.122916 5.52391 0 5.83333 0C6.14275 0 6.4395 0.122916 6.65829 0.341709C6.87708 0.560501 7 0.857247 7 1.16667V2.33333H14V1.16667C14 0.857247 14.1229 0.560501 14.3417 0.341709C14.5605 0.122916 14.8572 0 15.1667 0Z" fill="#49594B"/>
</svg>
