<svg width="56" height="56" viewBox="0 0 56 56" fill="none" xmlns="http://www.w3.org/2000/svg">
<rect width="56" height="56" rx="28" fill="#1E241E"/>
<path d="M17 14C16.2044 14 15.4413 14.3161 14.8787 14.8787C14.3161 15.4413 14 16.2044 14 17V21C14 21.2652 13.8946 21.5196 13.7071 21.7071C13.5196 21.8946 13.2652 22 13 22C12.7348 22 12.4804 21.8946 12.2929 21.7071C12.1054 21.5196 12 21.2652 12 21V17C12 15.6739 12.5268 14.4021 13.4645 13.4645C14.4021 12.5268 15.6739 12 17 12H21C21.2652 12 21.5196 12.1054 21.7071 12.2929C21.8946 12.4804 22 12.7348 22 13C22 13.2652 21.8946 13.5196 21.7071 13.7071C21.5196 13.8946 21.2652 14 21 14H17ZM17 42C16.2044 42 15.4413 41.6839 14.8787 41.1213C14.3161 40.5587 14 39.7957 14 39V35C14 34.7348 13.8946 34.4804 13.7071 34.2929C13.5196 34.1054 13.2652 34 13 34C12.7348 34 12.4804 34.1054 12.2929 34.2929C12.1054 34.4804 12 34.7348 12 35V39C12 40.3261 12.5268 41.5979 13.4645 42.5355C14.4021 43.4732 15.6739 44 17 44H21C21.2652 44 21.5196 43.8946 21.7071 43.7071C21.8946 43.5196 22 43.2652 22 43C22 42.7348 21.8946 42.4804 21.7071 42.2929C21.5196 42.1054 21.2652 42 21 42H17ZM42 17C42 16.2044 41.6839 15.4413 41.1213 14.8787C40.5587 14.3161 39.7957 14 39 14H35C34.7348 14 34.4804 13.8946 34.2929 13.7071C34.1054 13.5196 34 13.2652 34 13C34 12.7348 34.1054 12.4804 34.2929 12.2929C34.4804 12.1054 34.7348 12 35 12H39C40.3261 12 41.5979 12.5268 42.5355 13.4645C43.4732 14.4021 44 15.6739 44 17V21C44 21.2652 43.8946 21.5196 43.7071 21.7071C43.5196 21.8946 43.2652 22 43 22C42.7348 22 42.4804 21.8946 42.2929 21.7071C42.1054 21.5196 42 21.2652 42 21V17ZM39 42C39.7957 42 40.5587 41.6839 41.1213 41.1213C41.6839 40.5587 42 39.7957 42 39V35C42 34.7348 42.1054 34.4804 42.2929 34.2929C42.4804 34.1054 42.7348 34 43 34C43.2652 34 43.5196 34.1054 43.7071 34.2929C43.8946 34.4804 44 34.7348 44 35V39C44 40.3261 43.4732 41.5979 42.5355 42.5355C41.5979 43.4732 40.3261 44 39 44H35C34.7348 44 34.4804 43.8946 34.2929 43.7071C34.1054 43.5196 34 43.2652 34 43C34 42.7348 34.1054 42.4804 34.2929 42.2929C34.4804 42.1054 34.7348 42 35 42H39ZM30.5 28.616C30.5 29.976 29.38 31.076 28 31.076C27.6743 31.0786 27.3513 31.0171 27.0494 30.8949C26.7475 30.7727 26.4726 30.5922 26.2405 30.3638C26.0083 30.1354 25.8235 29.8634 25.6964 29.5635C25.5694 29.2637 25.5026 28.9417 25.5 28.616C25.5 27.256 26.62 26.154 28 26.154C29.38 26.154 30.5 27.258 30.5 28.616ZM18 26.154V33.538C18 34.9 19.12 36 20.5 36H35.5C36.88 36 38 34.898 38 33.54V26.152C38 24.792 36.88 23.692 35.5 23.692H33L31.242 21.094C31.0115 20.7551 30.7013 20.4781 30.3386 20.2873C29.9759 20.0966 29.5718 19.9979 29.162 20H26.838C26.002 20 25.222 20.412 24.758 21.096L23 23.692H20.5C19.12 23.692 18 24.796 18 26.154ZM28 23.692C30.76 23.692 33 25.894 33 28.612C33 31.332 30.76 33.536 28 33.536C25.24 33.536 23 31.332 23 28.614C23 25.894 25.24 23.69 28 23.69" fill="#FAFAFA"/>
</svg>
