<svg width="28" height="28" viewBox="0 0 28 28" fill="none" xmlns="http://www.w3.org/2000/svg">
<path d="M12.0406 2.71557e-08C14.3016 -0.000151786 16.5169 0.636234 18.4331 1.83633C20.3492 3.03642 21.8888 4.75174 22.8756 6.78597C23.8624 8.8202 24.2566 11.0912 24.013 13.3389C23.7695 15.5867 22.898 17.7205 21.4983 19.4962L26.672 24.6698C26.93 24.937 27.0728 25.2949 27.0696 25.6663C27.0664 26.0378 26.9174 26.3931 26.6547 26.6557C26.3921 26.9184 26.0367 27.0674 25.6653 27.0706C25.2938 27.0738 24.936 26.9311 24.6688 26.673L19.4951 21.4993C17.987 22.6879 16.2165 23.4985 14.3314 23.8636C12.4463 24.2288 10.5012 24.1378 8.65837 23.5983C6.81556 23.0588 5.12848 22.0864 3.73789 20.7623C2.34731 19.4382 1.29354 17.8007 0.664495 15.9865C0.0354539 14.1723 -0.150615 12.234 0.121812 10.3332C0.39424 8.43249 1.11726 6.62446 2.23056 5.05998C3.34386 3.49551 4.81515 2.21995 6.52167 1.33973C8.2282 0.459516 10.1205 0.000163613 12.0406 2.71557e-08ZM12.0406 2.83333C9.59844 2.83333 7.25626 3.80349 5.52937 5.53039C3.80247 7.25729 2.83231 9.59946 2.83231 12.0417C2.83231 14.4839 3.80247 16.826 5.52937 18.5529C7.25626 20.2798 9.59844 21.25 12.0406 21.25C14.4828 21.25 16.825 20.2798 18.5519 18.5529C20.2788 16.826 21.249 14.4839 21.249 12.0417C21.249 9.59946 20.2788 7.25729 18.5519 5.53039C16.825 3.80349 14.4828 2.83333 12.0406 2.83333ZM12.0406 4.25C14.1071 4.25 16.089 5.07091 17.5502 6.53213C19.0114 7.99335 19.8323 9.97519 19.8323 12.0417C19.8323 14.1081 19.0114 16.09 17.5502 17.5512C16.089 19.0124 14.1071 19.8333 12.0406 19.8333C9.97416 19.8333 7.99232 19.0124 6.5311 17.5512C5.06988 16.09 4.24898 14.1081 4.24898 12.0417C4.24898 9.97519 5.06988 7.99335 6.5311 6.53213C7.99232 5.07091 9.97416 4.25 12.0406 4.25Z" fill="#49594B"/>
</svg>
