<svg width="24" height="24" viewBox="0 0 24 24" fill="none" xmlns="http://www.w3.org/2000/svg">
<g clip-path="url(#clip0_77_795)">
<path d="M8.91455 0.0334778V2.31919H15.7717V0.0334778H18.0574V2.31919H22.6288C22.9319 2.31919 23.2226 2.4396 23.437 2.65393C23.6513 2.86825 23.7717 3.15894 23.7717 3.46205V21.7478C23.7717 22.0509 23.6513 22.3416 23.437 22.5559C23.2226 22.7702 22.9319 22.8906 22.6288 22.8906H2.05741C1.7543 22.8906 1.46361 22.7702 1.24929 22.5559C1.03496 22.3416 0.914551 22.0509 0.914551 21.7478V3.46205C0.914551 3.15894 1.03496 2.86825 1.24929 2.65393C1.46361 2.4396 1.7543 2.31919 2.05741 2.31919H6.62884V0.0334778H8.91455ZM21.486 11.462H3.20027V20.6049H21.486V11.462ZM6.62884 4.60491H3.20027V9.17634H21.486V4.60491H18.0574V6.89062H15.7717V4.60491H8.91455V6.89062H6.62884V4.60491Z" fill="#1E241E"/>
</g>
<defs>
<clipPath id="clip0_77_795">
<rect width="24" height="24" fill="white"/>
</clipPath>
</defs>
</svg>
